<svg width="208" height="28" viewBox="0 0 208 28" fill="none" xmlns="http://www.w3.org/2000/svg">
<path d="M20.879 11C21.4415 10.4375 22.2045 10.1215 23 10.1215C23.7956 10.1215 24.5586 10.4375 25.1211 11L28.4696 14.3489C28.5392 14.4186 28.6219 14.4739 28.7129 14.5116C28.8039 14.5494 28.9014 14.5688 29 14.5688C29.0985 14.5688 29.196 14.5494 29.287 14.5116C29.378 14.4739 29.4607 14.4186 29.5303 14.3489L37.3772 6.5002C37.7749 6.1027 37.9986 5.56353 37.9989 5.0012C37.9991 4.60722 37.9216 4.21707 37.771 3.85302C37.6203 3.48897 37.3995 3.15816 37.121 2.87948C36.8425 2.60079 36.5118 2.37968 36.1479 2.22878C35.7839 2.07788 35.3938 2.00014 34.9999 2H17.0001C16.6061 1.99995 16.216 2.07752 15.852 2.22828C15.488 2.37903 15.1572 2.60002 14.8786 2.87861C14.6 3.15721 14.379 3.48796 14.2283 3.85198C14.0775 4.21599 14 4.60614 14 5.00013V17.1545C14 17.2138 14.0176 17.2718 14.0506 17.3211C14.0836 17.3705 14.1304 17.4089 14.1852 17.4316C14.24 17.4544 14.3003 17.4603 14.3585 17.4488C14.4167 17.4373 14.4702 17.4088 14.5122 17.3669L20.879 11Z" fill="#1E43FF"/>
<path d="M31.121 16.9999C30.5585 17.5624 29.7955 17.8784 29 17.8784C28.2044 17.8784 27.4414 17.5624 26.8789 16.9999L23.5293 13.6514C23.4597 13.5817 23.377 13.5264 23.286 13.4887C23.195 13.451 23.0975 13.4315 22.999 13.4315C22.9005 13.4315 22.8029 13.451 22.7119 13.4887C22.6209 13.5264 22.5382 13.5817 22.4686 13.6514L14.6214 21.4994C14.4243 21.6964 14.2681 21.9304 14.1615 22.1878C14.0548 22.4453 14 22.7212 14 22.9998C14 23.3938 14.0776 23.7839 14.2284 24.1479C14.3791 24.5119 14.6001 24.8427 14.8787 25.1212C15.1573 25.3998 15.488 25.6208 15.852 25.7716C16.216 25.9224 16.6062 26 17.0001 26H34.9999C35.7955 25.9999 36.5586 25.6838 37.1212 25.1211C37.6838 24.5585 37.9999 23.7955 38 22.9998V10.8451C37.9999 10.7858 37.9822 10.7279 37.9493 10.6786C37.9163 10.6293 37.8694 10.5909 37.8146 10.5683C37.7599 10.5456 37.6996 10.5396 37.6414 10.5512C37.5833 10.5627 37.5298 10.5912 37.4878 10.6331L31.121 16.9999Z" fill="#1E43FF"/>
<path d="M55.7318 6.51172C56.6343 6.51172 57.4527 6.60689 58.187 6.79724C58.9212 6.98759 59.5458 7.29096 60.0607 7.70735C60.5754 8.12421 60.9703 8.66766 61.2456 9.33768C61.5209 10.0077 61.6518 10.8295 61.6382 11.8032C61.6235 12.6505 61.4754 13.402 61.1939 14.0577C60.9124 14.7135 60.5208 15.264 60.019 15.7091C59.5174 16.1531 58.9175 16.4918 58.2194 16.7252C57.5213 16.9587 56.763 17.0749 55.9445 17.0739H53.044V21.4995H49.9746V6.51172H55.7318ZM55.7743 14.3636C56.1429 14.3655 56.5099 14.3156 56.8646 14.2155C57.1937 14.1257 57.5001 13.9676 57.764 13.7515C58.0213 13.5356 58.2303 13.2681 58.3776 12.9663C58.5324 12.657 58.6172 12.2901 58.6317 11.8656C58.6597 10.9063 58.4023 10.229 57.8593 9.83378C57.3164 9.43857 56.6144 9.24108 55.7536 9.24132H53.0436V14.3643L55.7743 14.3636Z" fill="#242424"/>
<path d="M66.5475 11.7417C66.9996 11.2052 67.4831 10.803 67.998 10.535C68.5129 10.2671 69.1302 10.1331 69.8499 10.1328C70.033 10.1328 70.2093 10.1403 70.3785 10.1539C70.5349 10.1665 70.6905 10.1877 70.8446 10.2174V12.9688C70.5201 12.9688 70.192 12.9723 69.8603 12.9795C69.5442 12.9853 69.2292 13.0172 68.9184 13.0748C68.624 13.131 68.3367 13.2198 68.0618 13.3396C67.7853 13.4605 67.5365 13.6369 67.3309 13.8578C67.0066 14.2254 66.8057 14.6205 66.7281 15.0431C66.6459 15.5185 66.6069 16.0004 66.6114 16.4828V21.4995H63.627V10.3445H66.3787L66.5475 11.7417Z" fill="#242424"/>
<path d="M77.3242 21.6674C75.5176 21.6674 74.1276 21.1558 73.1542 20.1327C72.1808 19.1095 71.6938 17.6878 71.6934 15.8673C71.6934 14.9929 71.8242 14.1993 72.086 13.4864C72.3477 12.7735 72.7146 12.1634 73.1866 11.6558C73.6597 11.1474 74.2452 10.7627 74.9433 10.502C75.6414 10.2412 76.4353 10.1103 77.3249 10.1094C78.1994 10.1094 78.9859 10.2402 79.6844 10.502C80.383 10.7637 80.9758 11.1483 81.4629 11.6558C81.9495 12.1634 82.3235 12.7735 82.585 13.4864C82.8465 14.1993 82.9774 14.9929 82.9776 15.8673C82.9776 17.7025 82.4874 19.1277 81.5071 20.143C80.5268 21.1583 79.1325 21.6664 77.3242 21.6674ZM77.3242 12.7765C76.4063 12.7765 75.7289 13.0731 75.292 13.6663C74.8552 14.2595 74.6363 15 74.6353 15.888C74.6353 16.7922 74.8542 17.5401 75.292 18.1319C75.7298 18.7236 76.4072 19.02 77.3242 19.0209C78.241 19.0209 78.9113 18.7246 79.335 18.1319C79.7588 17.5392 79.9703 16.7912 79.9696 15.888C79.9696 14.9993 79.7581 14.2587 79.335 13.6663C78.912 13.0738 78.2417 12.7776 77.3242 12.7776V12.7765Z" fill="#242424"/>
<path d="M91.3347 10.3434V12.9467H88.6043V21.4984H85.6199V12.9467H83.9268V10.3434H85.6199V8.90366C85.6199 7.64808 85.948 6.72393 86.6042 6.13124C87.2605 5.53854 88.2453 5.24219 89.5587 5.24219H91.3364V7.84544H89.9823C89.0646 7.84544 88.6059 8.3112 88.6061 9.24272V10.3434H91.3347Z" fill="#242424"/>
<path d="M94.4681 5.15625C95.0187 5.15625 95.4633 5.31841 95.8018 5.64271C96.1404 5.96702 96.3096 6.39745 96.3094 6.93399C96.3094 7.49838 96.1402 7.93939 95.8018 8.25703C95.4635 8.57468 95.0189 8.73338 94.4681 8.73314C93.9318 8.73314 93.4909 8.57444 93.1454 8.25703C92.7999 7.93963 92.6269 7.49861 92.6265 6.93399C92.6265 6.3984 92.7994 5.96797 93.1454 5.64271C93.4914 5.31746 93.9323 5.1553 94.4681 5.15625ZM95.971 21.4971H92.9855V10.3421H95.9699L95.971 21.4971Z" fill="#242424"/>
<path d="M102.364 12.9455V17.4543C102.364 18.4143 102.851 18.8942 103.825 18.894H104.925V21.4973H103.528C102.046 21.5532 100.984 21.271 100.342 20.6507C99.7008 20.0304 99.3796 19.0921 99.3788 17.8358V12.9462H97.686V10.3422H99.3788V7.31641H102.363V10.3433H105.03V12.9466L102.364 12.9455Z" fill="#242424"/>
<path d="M110.358 6.51172L114.846 13.5602L119.311 6.51172H122.571V21.4978H119.523V11.1682L115.48 17.6243H114.105L110.062 11.1682V21.4978H107.035V6.51172H110.358Z" fill="#242424"/>
<path d="M130.425 19.2322C130.849 19.2322 131.212 19.1652 131.516 19.0313C131.82 18.8973 132.069 18.6751 132.265 18.3646H135.398C135.243 18.9435 135.007 19.4446 134.689 19.8678C134.379 20.284 133.991 20.6362 133.547 20.905C133.091 21.1774 132.594 21.3739 132.075 21.4868C131.52 21.6087 130.952 21.6692 130.383 21.667C128.576 21.667 127.211 21.1588 126.287 20.1423C125.363 19.1258 124.901 17.7006 124.9 15.8666C124.9 15.0338 125.024 14.2649 125.271 13.5599C125.518 12.8549 125.867 12.2447 126.319 11.7294C126.771 11.214 127.331 10.8152 128.001 10.533C128.671 10.2508 129.436 10.1096 130.298 10.1094C131.3 10.1094 132.167 10.2859 132.901 10.639C133.635 10.9921 134.217 11.4752 134.648 12.0884C135.078 12.703 135.367 13.4192 135.515 14.237C135.663 15.0548 135.66 15.9299 135.505 16.8624H127.886C127.943 17.5248 128.176 18.0856 128.586 18.5448C128.995 19.004 129.608 19.2331 130.425 19.2322ZM132.733 14.8091C132.739 14.4848 132.674 14.163 132.542 13.8665C132.426 13.6053 132.252 13.3736 132.034 13.1884C131.814 13.0069 131.558 12.8732 131.283 12.7958C130.991 12.7115 130.689 12.6692 130.385 12.6702C129.636 12.6837 129.054 12.8847 128.638 13.273C128.223 13.6613 127.979 14.1728 127.908 14.8077L132.733 14.8091Z" fill="#242424"/>
<path d="M141.414 12.9455V17.4543C141.414 18.4143 141.901 18.8942 142.875 18.894H143.976V21.4973H142.578C141.096 21.5532 140.035 21.271 139.393 20.6507C138.751 20.0304 138.429 19.0921 138.429 17.8358V12.9462H136.736V10.3422H138.429V7.31641H141.413V10.3433H144.08V12.9466L141.414 12.9455Z" fill="#242424"/>
<path d="M148.608 11.7417C149.06 11.2052 149.544 10.803 150.059 10.535C150.573 10.2671 151.191 10.1331 151.91 10.1328C152.094 10.1328 152.27 10.1403 152.439 10.1539C152.595 10.1665 152.751 10.1877 152.905 10.2174V12.9688C152.581 12.9688 152.253 12.9723 151.921 12.9795C151.605 12.9853 151.29 13.0172 150.979 13.0748C150.684 13.131 150.397 13.2198 150.122 13.3396C149.846 13.4605 149.597 13.6369 149.391 13.8578C149.067 14.2254 148.866 14.6205 148.789 15.0431C148.706 15.5185 148.667 16.0004 148.672 16.4828V21.4995H145.688V10.3445H148.439L148.608 11.7417Z" fill="#242424"/>
<path d="M156.059 5.15625C156.61 5.15625 157.055 5.31841 157.393 5.64271C157.731 5.96702 157.9 6.39745 157.9 6.93399C157.9 7.49838 157.731 7.93939 157.393 8.25703C157.055 8.57468 156.61 8.73338 156.059 8.73314C155.523 8.73314 155.083 8.57444 154.739 8.25703C154.395 7.93963 154.222 7.49861 154.22 6.93399C154.22 6.3984 154.393 5.96797 154.739 5.64271C155.085 5.31746 155.525 5.1553 156.059 5.15625ZM157.562 21.4971H154.578V10.3421H157.562V21.4971Z" fill="#242424"/>
<path d="M165.207 19.0203C165.771 19.0203 166.219 18.8864 166.551 18.6184C166.883 18.3505 167.084 18.0472 167.154 17.7083H170.287C170.188 18.4279 169.983 19.0346 169.673 19.5286C169.374 20.0104 168.982 20.4279 168.519 20.7567C168.05 21.0862 167.522 21.3231 166.963 21.4548C166.374 21.597 165.77 21.6681 165.164 21.6668C164.233 21.6668 163.425 21.5359 162.74 21.2742C162.056 21.0124 161.488 20.6317 161.037 20.1321C160.585 19.6324 160.243 19.0257 160.01 18.3119C159.778 17.5981 159.661 16.7972 159.661 15.9092C159.661 15.0491 159.788 14.259 160.042 13.539C160.296 12.819 160.659 12.2052 161.132 11.6977C161.605 11.1893 162.187 10.7976 162.878 10.5228C163.569 10.248 164.359 10.1102 165.249 10.1095C165.867 10.1057 166.483 10.1841 167.08 10.3426C167.628 10.4868 168.145 10.7307 168.604 11.0621C169.054 11.393 169.429 11.815 169.704 12.3005C169.994 12.8002 170.188 13.3964 170.287 14.089H167.154C167.082 13.7506 166.875 13.4473 166.53 13.1789C166.185 12.9105 165.738 12.7765 165.187 12.777C164.721 12.777 164.319 12.8617 163.98 13.0311C163.655 13.1889 163.378 13.4302 163.176 13.7303C162.973 14.0395 162.829 14.3842 162.753 14.7464C162.666 15.1424 162.624 15.5467 162.625 15.952C162.621 16.3695 162.671 16.7857 162.774 17.1905C162.861 17.5397 163.011 17.8698 163.219 18.1641C163.42 18.4427 163.694 18.6619 164.009 18.7987C164.342 18.9462 164.741 19.0201 165.207 19.0203Z" fill="#242424"/>
<path d="M176.21 12.5018C176.008 12.5013 175.807 12.5153 175.607 12.5439C175.429 12.5688 175.255 12.6151 175.088 12.6817C174.936 12.7426 174.804 12.8451 174.707 12.9776C174.609 13.112 174.566 13.285 174.58 13.4965C174.594 13.7364 174.69 13.9267 174.865 14.0676C175.041 14.2084 175.292 14.3214 175.617 14.4066C175.926 14.4913 176.272 14.5726 176.654 14.6504C177.035 14.7275 177.409 14.8092 177.776 14.8931C178.142 14.977 178.503 15.0769 178.855 15.1897C179.182 15.291 179.495 15.4334 179.786 15.6133C180.153 15.8389 180.457 16.1564 180.696 16.5659C180.936 16.9754 181.049 17.4761 181.035 18.0681C181.035 18.647 180.94 19.1445 180.75 19.5607C180.568 19.9656 180.305 20.3292 179.978 20.6292C179.569 20.9964 179.054 21.261 178.433 21.423C177.818 21.5845 177.185 21.6664 176.549 21.6668C175.815 21.6668 175.141 21.5891 174.527 21.4337C173.915 21.279 173.342 20.9978 172.845 20.6082C172.472 20.3056 172.16 19.9359 171.924 19.5182C171.677 19.0878 171.532 18.5691 171.49 17.9621H174.496C174.58 18.4425 174.816 18.7741 175.205 18.9568C175.594 19.1395 176.056 19.2312 176.591 19.232C176.757 19.2314 176.923 19.2208 177.088 19.2002C177.256 19.1814 177.42 19.1386 177.576 19.0731C177.725 19.0083 177.856 18.9066 177.956 18.7776C178.058 18.656 178.114 18.5032 178.115 18.3451C178.129 17.9782 178.005 17.7171 177.744 17.562C177.487 17.408 177.204 17.3005 176.909 17.2444C176.612 17.173 176.295 17.1023 175.956 17.0324C175.617 16.9624 175.282 16.8921 174.951 16.8214C174.618 16.7503 174.29 16.6619 173.966 16.5566C173.651 16.4552 173.351 16.3089 173.078 16.1223C172.664 15.8642 172.313 15.5172 172.051 15.1065C171.776 14.6835 171.659 14.1261 171.701 13.4344C171.729 12.8277 171.881 12.309 172.157 11.8783C172.421 11.4596 172.775 11.1052 173.194 10.8412C173.63 10.5718 174.11 10.3815 174.612 10.279C175.144 10.1658 175.687 10.109 176.232 10.1095C176.808 10.1062 177.383 10.1703 177.945 10.3004C178.481 10.4275 178.95 10.632 179.353 10.914C179.758 11.2006 180.091 11.5774 180.326 12.0147C180.573 12.4667 180.71 13.0172 180.739 13.666H177.86C177.803 13.1999 177.624 12.8895 177.32 12.7349C177.017 12.5802 176.647 12.5025 176.21 12.5018Z" fill="#242424"/>
</svg>
